<svg width="1600" height="80" viewBox="0 0 1600 80" fill="none" xmlns="http://www.w3.org/2000/svg">
<rect width="1600" height="80" fill="white"/>
<line x1="-4.37114e-08" y1="79.5" x2="1600" y2="79.4999" stroke="#ECECEC"/>
<path d="M223.294 30.592H226.596L228.676 36.702L230.756 30.592H234.084L230.938 38.99L233.278 44.892L238.504 30.54H242.404L234.89 49H231.874L228.676 41.252L225.478 49H222.462L215 30.54H218.848L224.1 44.892L226.388 38.99L223.294 30.592ZM249.379 49.26C248.287 49.26 247.299 49.078 246.415 48.714C245.531 48.3327 244.777 47.8213 244.153 47.18C243.529 46.5387 243.044 45.7933 242.697 44.944C242.368 44.0947 242.203 43.202 242.203 42.266C242.203 41.2953 242.368 40.3853 242.697 39.536C243.027 38.6693 243.503 37.9153 244.127 37.274C244.751 36.6153 245.505 36.0953 246.389 35.714C247.291 35.3327 248.296 35.142 249.405 35.142C250.515 35.142 251.503 35.3327 252.369 35.714C253.253 36.0953 253.999 36.6067 254.605 37.248C255.229 37.8893 255.697 38.6347 256.009 39.484C256.339 40.3333 256.503 41.2173 256.503 42.136C256.503 42.3613 256.495 42.578 256.477 42.786C256.477 42.994 256.46 43.1673 256.425 43.306H245.895C245.947 43.8433 246.077 44.32 246.285 44.736C246.493 45.152 246.762 45.5073 247.091 45.802C247.421 46.0967 247.793 46.322 248.209 46.478C248.625 46.634 249.059 46.712 249.509 46.712C250.203 46.712 250.853 46.5473 251.459 46.218C252.083 45.8713 252.508 45.4207 252.733 44.866L255.723 45.698C255.221 46.738 254.415 47.596 253.305 48.272C252.213 48.9307 250.905 49.26 249.379 49.26ZM252.915 41.044C252.829 40.0213 252.447 39.2067 251.771 38.6C251.113 37.976 250.307 37.664 249.353 37.664C248.885 37.664 248.443 37.7507 248.027 37.924C247.629 38.08 247.273 38.3053 246.961 38.6C246.649 38.8947 246.389 39.25 246.181 39.666C245.991 40.082 245.878 40.5413 245.843 41.044H252.915ZM267.154 49.26C266.114 49.26 265.186 49.026 264.372 48.558C263.557 48.09 262.916 47.4487 262.448 46.634V49H259.406V30.02H262.89V37.768C263.375 36.936 264.008 36.2947 264.788 35.844C265.585 35.376 266.512 35.142 267.57 35.142C268.454 35.142 269.26 35.3327 269.988 35.714C270.716 36.0953 271.34 36.6067 271.86 37.248C272.397 37.8893 272.804 38.6433 273.082 39.51C273.376 40.3767 273.524 41.2867 273.524 42.24C273.524 43.228 273.359 44.1467 273.03 44.996C272.718 45.8453 272.276 46.5907 271.704 47.232C271.132 47.856 270.456 48.35 269.676 48.714C268.896 49.078 268.055 49.26 267.154 49.26ZM266.192 46.296C266.746 46.296 267.258 46.192 267.726 45.984C268.194 45.7587 268.592 45.464 268.922 45.1C269.251 44.736 269.502 44.3113 269.676 43.826C269.866 43.3407 269.962 42.8207 269.962 42.266C269.962 41.7113 269.875 41.1827 269.702 40.68C269.528 40.1773 269.277 39.7353 268.948 39.354C268.636 38.9727 268.263 38.6693 267.83 38.444C267.396 38.2187 266.92 38.106 266.4 38.106C265.62 38.106 264.918 38.366 264.294 38.886C263.687 39.3887 263.219 40.0127 262.89 40.758V44.008C263.011 44.3547 263.184 44.6667 263.41 44.944C263.652 45.2213 263.921 45.464 264.216 45.672C264.51 45.8627 264.831 46.0187 265.178 46.14C265.524 46.244 265.862 46.296 266.192 46.296Z" fill="#2196F3"/>
<path d="M288 35.376C287.879 35.2547 287.654 35.09 287.324 34.882C287.012 34.674 286.622 34.4747 286.154 34.284C285.704 34.076 285.21 33.9027 284.672 33.764C284.135 33.6253 283.589 33.556 283.034 33.556C282.046 33.556 281.31 33.738 280.824 34.102C280.339 34.466 280.096 34.9773 280.096 35.636C280.096 36.0173 280.183 36.338 280.356 36.598C280.547 36.8407 280.816 37.0573 281.162 37.248C281.509 37.4387 281.942 37.612 282.462 37.768C283 37.924 283.615 38.0887 284.308 38.262C285.21 38.5047 286.024 38.7647 286.752 39.042C287.498 39.3193 288.122 39.666 288.624 40.082C289.144 40.498 289.543 41.0007 289.82 41.59C290.098 42.162 290.236 42.8727 290.236 43.722C290.236 44.71 290.046 45.5593 289.664 46.27C289.3 46.9633 288.798 47.5267 288.156 47.96C287.532 48.3933 286.804 48.714 285.972 48.922C285.158 49.1127 284.3 49.208 283.398 49.208C282.012 49.208 280.642 49 279.29 48.584C277.938 48.168 276.725 47.5787 275.65 46.816L277.236 43.722C277.392 43.878 277.67 44.086 278.068 44.346C278.484 44.5887 278.97 44.84 279.524 45.1C280.079 45.3427 280.694 45.5507 281.37 45.724C282.046 45.8973 282.74 45.984 283.45 45.984C285.426 45.984 286.414 45.3513 286.414 44.086C286.414 43.6873 286.302 43.3493 286.076 43.072C285.851 42.7947 285.53 42.552 285.114 42.344C284.698 42.136 284.196 41.9453 283.606 41.772C283.017 41.5987 282.358 41.408 281.63 41.2C280.746 40.9573 279.975 40.6973 279.316 40.42C278.675 40.1253 278.138 39.7873 277.704 39.406C277.271 39.0073 276.942 38.5567 276.716 38.054C276.508 37.534 276.404 36.9187 276.404 36.208C276.404 35.272 276.578 34.44 276.924 33.712C277.271 32.984 277.748 32.3773 278.354 31.892C278.978 31.4067 279.698 31.0427 280.512 30.8C281.327 30.54 282.202 30.41 283.138 30.41C284.438 30.41 285.634 30.618 286.726 31.034C287.818 31.4327 288.772 31.9093 289.586 32.464L288 35.376ZM301.401 48.298C300.933 48.506 300.361 48.714 299.685 48.922C299.009 49.13 298.299 49.234 297.553 49.234C297.068 49.234 296.609 49.1733 296.175 49.052C295.759 48.9307 295.387 48.74 295.057 48.48C294.745 48.2027 294.494 47.856 294.303 47.44C294.113 47.0067 294.017 46.4867 294.017 45.88V38.054H292.223V35.376H294.017V30.956H297.501V35.376H300.361V38.054H297.501V44.71C297.501 45.1953 297.623 45.542 297.865 45.75C298.125 45.9407 298.437 46.036 298.801 46.036C299.165 46.036 299.521 45.9753 299.867 45.854C300.214 45.7327 300.491 45.6287 300.699 45.542L301.401 48.298ZM308.156 49.26C306.752 49.26 305.686 48.8093 304.958 47.908C304.23 47.0067 303.866 45.672 303.866 43.904V35.376H307.35V43.15C307.35 45.2473 308.104 46.296 309.612 46.296C310.288 46.296 310.938 46.0967 311.562 45.698C312.203 45.282 312.723 44.658 313.122 43.826V35.376H316.606V44.996C316.606 45.36 316.666 45.62 316.788 45.776C316.926 45.932 317.143 46.0187 317.438 46.036V49C317.091 49.0693 316.796 49.1127 316.554 49.13C316.328 49.1473 316.12 49.156 315.93 49.156C315.306 49.156 314.794 49.0173 314.396 48.74C314.014 48.4453 313.789 48.0467 313.72 47.544L313.642 46.452C313.035 47.388 312.255 48.09 311.302 48.558C310.348 49.026 309.3 49.26 308.156 49.26ZM326.49 49.26C325.554 49.26 324.687 49.078 323.89 48.714C323.093 48.35 322.408 47.8473 321.836 47.206C321.264 46.5647 320.813 45.8193 320.484 44.97C320.172 44.1033 320.016 43.176 320.016 42.188C320.016 41.2 320.163 40.2813 320.458 39.432C320.77 38.5827 321.195 37.8373 321.732 37.196C322.269 36.5547 322.911 36.052 323.656 35.688C324.401 35.324 325.216 35.142 326.1 35.142C327.105 35.142 328.007 35.3847 328.804 35.87C329.619 36.3553 330.251 36.988 330.702 37.768V30.02H334.186V44.996C334.186 45.36 334.247 45.62 334.368 45.776C334.489 45.932 334.697 46.0187 334.992 46.036V49C334.385 49.1213 333.891 49.182 333.51 49.182C332.886 49.182 332.375 49.026 331.976 48.714C331.577 48.402 331.352 47.9947 331.3 47.492L331.222 46.634C330.719 47.5007 330.035 48.1593 329.168 48.61C328.319 49.0433 327.426 49.26 326.49 49.26ZM327.4 46.296C327.729 46.296 328.067 46.244 328.414 46.14C328.761 46.0187 329.081 45.854 329.376 45.646C329.671 45.438 329.931 45.1953 330.156 44.918C330.399 44.6407 330.581 44.3373 330.702 44.008V40.758C330.563 40.3767 330.364 40.03 330.104 39.718C329.861 39.3887 329.575 39.1113 329.246 38.886C328.934 38.6433 328.596 38.4527 328.232 38.314C327.885 38.1753 327.539 38.106 327.192 38.106C326.672 38.106 326.187 38.2187 325.736 38.444C325.303 38.6693 324.93 38.9813 324.618 39.38C324.306 39.7613 324.063 40.2033 323.89 40.706C323.717 41.2087 323.63 41.7287 323.63 42.266C323.63 42.838 323.725 43.3667 323.916 43.852C324.107 44.3373 324.367 44.762 324.696 45.126C325.025 45.49 325.415 45.776 325.866 45.984C326.334 46.192 326.845 46.296 327.4 46.296ZM338.386 49V35.376H341.87V49H338.386ZM338.386 33.478V30.02H341.87V33.478H338.386ZM352.085 49.26C350.975 49.26 349.979 49.0693 349.095 48.688C348.211 48.3067 347.457 47.7953 346.833 47.154C346.226 46.4953 345.758 45.7413 345.429 44.892C345.099 44.0427 344.935 43.15 344.935 42.214C344.935 41.2607 345.099 40.3593 345.429 39.51C345.758 38.6607 346.226 37.9153 346.833 37.274C347.457 36.6153 348.211 36.0953 349.095 35.714C349.979 35.3327 350.975 35.142 352.085 35.142C353.194 35.142 354.182 35.3327 355.049 35.714C355.933 36.0953 356.678 36.6153 357.285 37.274C357.909 37.9153 358.385 38.6607 358.715 39.51C359.044 40.3593 359.209 41.2607 359.209 42.214C359.209 43.15 359.044 44.0427 358.715 44.892C358.385 45.7413 357.917 46.4953 357.311 47.154C356.704 47.7953 355.959 48.3067 355.075 48.688C354.191 49.0693 353.194 49.26 352.085 49.26ZM348.523 42.214C348.523 42.8207 348.609 43.3753 348.783 43.878C348.973 44.3633 349.225 44.788 349.537 45.152C349.866 45.516 350.247 45.802 350.681 46.01C351.114 46.2007 351.582 46.296 352.085 46.296C352.587 46.296 353.055 46.2007 353.489 46.01C353.922 45.802 354.295 45.516 354.607 45.152C354.936 44.788 355.187 44.3547 355.361 43.852C355.551 43.3493 355.647 42.7947 355.647 42.188C355.647 41.5987 355.551 41.0527 355.361 40.55C355.187 40.0473 354.936 39.614 354.607 39.25C354.295 38.886 353.922 38.6087 353.489 38.418C353.055 38.21 352.587 38.106 352.085 38.106C351.582 38.106 351.114 38.21 350.681 38.418C350.247 38.626 349.866 38.912 349.537 39.276C349.225 39.64 348.973 40.0733 348.783 40.576C348.609 41.0787 348.523 41.6247 348.523 42.214Z" fill="black"/>
<path d="M461.606 41.7598C461.506 42.8216 461.114 43.651 460.431 44.248C459.747 44.8405 458.838 45.1367 457.703 45.1367C456.91 45.1367 456.211 44.9499 455.604 44.5762C455.003 44.1979 454.538 43.6624 454.21 42.9697C453.882 42.277 453.711 41.4727 453.697 40.5566V39.627C453.697 38.6882 453.864 37.861 454.196 37.1455C454.529 36.43 455.005 35.8786 455.625 35.4912C456.249 35.1038 456.969 34.9102 457.785 34.9102C458.883 34.9102 459.768 35.2087 460.438 35.8057C461.107 36.4027 461.497 37.2458 461.606 38.335H459.884C459.802 37.6195 459.592 37.1045 459.255 36.79C458.922 36.471 458.432 36.3115 457.785 36.3115C457.033 36.3115 456.454 36.5872 456.049 37.1387C455.648 37.6855 455.443 38.4899 455.434 39.5518V40.4336C455.434 41.5091 455.625 42.3294 456.008 42.8945C456.395 43.4596 456.96 43.7422 457.703 43.7422C458.382 43.7422 458.893 43.5895 459.234 43.2842C459.576 42.9788 459.793 42.4707 459.884 41.7598H461.606ZM469.098 38.9229H466.699V45H465.038V38.9229H462.666V37.6035H469.098V38.9229ZM473.159 42.6211L474.663 37.6035H476.433L473.494 46.1211C473.042 47.3652 472.277 47.9873 471.197 47.9873C470.955 47.9873 470.689 47.9463 470.397 47.8643V46.5791L470.711 46.5996C471.131 46.5996 471.445 46.5221 471.655 46.3672C471.869 46.2168 472.038 45.9616 472.161 45.6016L472.4 44.9658L469.802 37.6035H471.593L473.159 42.6211ZM477.321 43.6738C477.782 43.1589 478.089 42.6712 478.244 42.2109C478.404 41.7461 478.5 41.1536 478.531 40.4336L478.627 37.6035H483.761V43.6738H484.786V47.2012H483.132V45H478.388V47.2012H476.706L476.713 43.6738H477.321ZM479.27 43.6738H482.107V39.0322H480.24L480.193 40.4473C480.129 41.8053 479.821 42.8809 479.27 43.6738ZM490.747 37.6035H492.401V45H490.747V40.0645L487.849 45H486.194V37.6035H487.849V42.5391L490.747 37.6035ZM500.372 37.6035V45H498.717V42.2861H497.166L495.587 45H493.864L495.607 42.0127C495.151 41.8213 494.8 41.5479 494.554 41.1924C494.313 40.8369 494.192 40.429 494.192 39.9688C494.192 39.2806 494.456 38.7178 494.985 38.2803C495.518 37.8382 496.236 37.6126 497.138 37.6035H500.372ZM495.853 40.0098C495.853 40.3197 495.967 40.5726 496.195 40.7686C496.427 40.96 496.724 41.0557 497.084 41.0557H498.717V38.9229H497.186C496.781 38.9229 496.457 39.0254 496.215 39.2305C495.974 39.4355 495.853 39.6953 495.853 40.0098Z" fill="#212121"/>
<path d="M461.606 41.7598C461.506 42.8216 461.114 43.651 460.431 44.248C459.747 44.8405 458.838 45.1367 457.703 45.1367C456.91 45.1367 456.211 44.9499 455.604 44.5762C455.003 44.1979 454.538 43.6624 454.21 42.9697C453.882 42.277 453.711 41.4727 453.697 40.5566V39.627C453.697 38.6882 453.864 37.861 454.196 37.1455C454.529 36.43 455.005 35.8786 455.625 35.4912C456.249 35.1038 456.969 34.9102 457.785 34.9102C458.883 34.9102 459.768 35.2087 460.438 35.8057C461.107 36.4027 461.497 37.2458 461.606 38.335H459.884C459.802 37.6195 459.592 37.1045 459.255 36.79C458.922 36.471 458.432 36.3115 457.785 36.3115C457.033 36.3115 456.454 36.5872 456.049 37.1387C455.648 37.6855 455.443 38.4899 455.434 39.5518V40.4336C455.434 41.5091 455.625 42.3294 456.008 42.8945C456.395 43.4596 456.96 43.7422 457.703 43.7422C458.382 43.7422 458.893 43.5895 459.234 43.2842C459.576 42.9788 459.793 42.4707 459.884 41.7598H461.606ZM469.098 38.9229H466.699V45H465.038V38.9229H462.666V37.6035H469.098V38.9229ZM473.159 42.6211L474.663 37.6035H476.433L473.494 46.1211C473.042 47.3652 472.277 47.9873 471.197 47.9873C470.955 47.9873 470.689 47.9463 470.397 47.8643V46.5791L470.711 46.5996C471.131 46.5996 471.445 46.5221 471.655 46.3672C471.869 46.2168 472.038 45.9616 472.161 45.6016L472.4 44.9658L469.802 37.6035H471.593L473.159 42.6211ZM477.321 43.6738C477.782 43.1589 478.089 42.6712 478.244 42.2109C478.404 41.7461 478.5 41.1536 478.531 40.4336L478.627 37.6035H483.761V43.6738H484.786V47.2012H483.132V45H478.388V47.2012H476.706L476.713 43.6738H477.321ZM479.27 43.6738H482.107V39.0322H480.24L480.193 40.4473C480.129 41.8053 479.821 42.8809 479.27 43.6738ZM490.747 37.6035H492.401V45H490.747V40.0645L487.849 45H486.194V37.6035H487.849V42.5391L490.747 37.6035ZM500.372 37.6035V45H498.717V42.2861H497.166L495.587 45H493.864L495.607 42.0127C495.151 41.8213 494.8 41.5479 494.554 41.1924C494.313 40.8369 494.192 40.429 494.192 39.9688C494.192 39.2806 494.456 38.7178 494.985 38.2803C495.518 37.8382 496.236 37.6126 497.138 37.6035H500.372ZM495.853 40.0098C495.853 40.3197 495.967 40.5726 496.195 40.7686C496.427 40.96 496.724 41.0557 497.084 41.0557H498.717V38.9229H497.186C496.781 38.9229 496.457 39.0254 496.215 39.2305C495.974 39.4355 495.853 39.6953 495.853 40.0098Z" fill="#2196F3"/>
<path d="M560.887 45H559.164V36.4414H554.782V45H553.06V35.0469H560.887V45ZM562.787 41.2334C562.787 40.5088 562.93 39.8571 563.217 39.2783C563.505 38.695 563.908 38.2484 564.427 37.9385C564.947 37.624 565.544 37.4668 566.218 37.4668C567.217 37.4668 568.025 37.7881 568.645 38.4307C569.27 39.0732 569.607 39.9255 569.657 40.9873L569.664 41.377C569.664 42.1061 569.523 42.7578 569.24 43.332C568.962 43.9062 568.561 44.3506 568.037 44.665C567.517 44.9795 566.916 45.1367 566.232 45.1367C565.189 45.1367 564.352 44.7904 563.723 44.0977C563.099 43.4004 562.787 42.473 562.787 41.3154V41.2334ZM564.448 41.377C564.448 42.138 564.605 42.735 564.92 43.168C565.234 43.5964 565.672 43.8105 566.232 43.8105C566.793 43.8105 567.228 43.5918 567.538 43.1543C567.852 42.7168 568.009 42.0765 568.009 41.2334C568.009 40.486 567.848 39.8936 567.524 39.4561C567.205 39.0186 566.77 38.7998 566.218 38.7998C565.676 38.7998 565.245 39.0163 564.926 39.4492C564.607 39.8776 564.448 40.5202 564.448 41.377ZM577.826 41.377C577.826 42.5208 577.566 43.4346 577.046 44.1182C576.527 44.7972 575.83 45.1367 574.955 45.1367C574.143 45.1367 573.494 44.8701 573.006 44.3369V47.8438H571.345V37.6035H572.876L572.945 38.3555C573.432 37.763 574.095 37.4668 574.934 37.4668C575.836 37.4668 576.543 37.804 577.053 38.4785C577.568 39.1484 577.826 40.0804 577.826 41.2744V41.377ZM576.171 41.2334C576.171 40.4951 576.023 39.9095 575.727 39.4766C575.435 39.0436 575.016 38.8271 574.469 38.8271C573.79 38.8271 573.303 39.1074 573.006 39.668V42.9492C573.307 43.5234 573.799 43.8105 574.483 43.8105C575.011 43.8105 575.424 43.5986 575.72 43.1748C576.021 42.7464 576.171 42.0993 576.171 41.2334ZM585.051 38.9229H582.652V45H580.99V38.9229H578.618V37.6035H585.051V38.9229ZM585.727 41.4043C585.727 40.1966 585.964 39.2396 586.438 38.5332C586.917 37.8223 587.582 37.4668 588.434 37.4668C588.781 37.4668 589.095 37.5306 589.378 37.6582V34.5H591.032V37.6855C591.324 37.5397 591.666 37.4668 592.057 37.4668C592.905 37.4668 593.568 37.82 594.047 38.5264C594.53 39.2282 594.771 40.2354 594.771 41.5479C594.771 42.6553 594.53 43.5303 594.047 44.1729C593.564 44.8154 592.905 45.1367 592.071 45.1367C591.693 45.1367 591.347 45.0684 591.032 44.9316V47.8438H589.378V44.959C589.1 45.0775 588.781 45.1367 588.421 45.1367C587.623 45.1367 586.985 44.8428 586.507 44.2549C586.033 43.6624 585.775 42.849 585.734 41.8145L585.727 41.4043ZM593.11 41.4043C593.11 40.5749 592.978 39.9346 592.714 39.4834C592.449 39.0277 592.076 38.7998 591.593 38.7998C591.388 38.7998 591.201 38.8294 591.032 38.8887V43.7422C591.182 43.7878 591.374 43.8105 591.606 43.8105C592.609 43.8105 593.11 43.0085 593.11 41.4043ZM587.382 41.5479C587.382 42.2861 587.505 42.849 587.751 43.2363C587.997 43.6191 588.362 43.8105 588.845 43.8105C589.05 43.8105 589.227 43.7878 589.378 43.7422V38.8682C589.223 38.8226 589.05 38.7998 588.858 38.7998C588.384 38.7998 588.02 39.0208 587.765 39.4629C587.509 39.9004 587.382 40.5954 587.382 41.5479ZM596.172 41.2334C596.172 40.5088 596.316 39.8571 596.603 39.2783C596.89 38.695 597.294 38.2484 597.813 37.9385C598.333 37.624 598.93 37.4668 599.604 37.4668C600.602 37.4668 601.411 37.7881 602.031 38.4307C602.655 39.0732 602.992 39.9255 603.043 40.9873L603.049 41.377C603.049 42.1061 602.908 42.7578 602.626 43.332C602.348 43.9062 601.947 44.3506 601.422 44.665C600.903 44.9795 600.301 45.1367 599.618 45.1367C598.574 45.1367 597.738 44.7904 597.109 44.0977C596.485 43.4004 596.172 42.473 596.172 41.3154V41.2334ZM597.834 41.377C597.834 42.138 597.991 42.735 598.305 43.168C598.62 43.5964 599.057 43.8105 599.618 43.8105C600.178 43.8105 600.614 43.5918 600.923 43.1543C601.238 42.7168 601.395 42.0765 601.395 41.2334C601.395 40.486 601.233 39.8936 600.91 39.4561C600.591 39.0186 600.156 38.7998 599.604 38.7998C599.062 38.7998 598.631 39.0163 598.312 39.4492C597.993 39.8776 597.834 40.5202 597.834 41.377ZM610.91 37.6035V45H609.249V38.9434H607.158L607.021 41.5205C606.934 42.7601 606.695 43.651 606.303 44.1934C605.916 44.7311 605.321 45 604.519 45H604.006L603.999 43.6191L604.341 43.585C604.706 43.5348 604.97 43.3138 605.134 42.9219C605.303 42.5254 605.41 41.8053 605.455 40.7617L605.592 37.6035H610.91ZM617.575 37.6035H619.23V45H617.575V40.0645L614.677 45H613.022V37.6035H614.677V42.5391L617.575 37.6035ZM620.966 41.2334C620.966 40.5088 621.109 39.8571 621.396 39.2783C621.683 38.695 622.087 38.2484 622.606 37.9385C623.126 37.624 623.723 37.4668 624.397 37.4668C625.395 37.4668 626.204 37.7881 626.824 38.4307C627.448 39.0732 627.786 39.9255 627.836 40.9873L627.843 41.377C627.843 42.1061 627.701 42.7578 627.419 43.332C627.141 43.9062 626.74 44.3506 626.216 44.665C625.696 44.9795 625.094 45.1367 624.411 45.1367C623.367 45.1367 622.531 44.7904 621.902 44.0977C621.278 43.4004 620.966 42.473 620.966 41.3154V41.2334ZM622.627 41.377C622.627 42.138 622.784 42.735 623.098 43.168C623.413 43.5964 623.85 43.8105 624.411 43.8105C624.971 43.8105 625.407 43.5918 625.717 43.1543C626.031 42.7168 626.188 42.0765 626.188 41.2334C626.188 40.486 626.026 39.8936 625.703 39.4561C625.384 39.0186 624.949 38.7998 624.397 38.7998C623.855 38.7998 623.424 39.0163 623.105 39.4492C622.786 39.8776 622.627 40.5202 622.627 41.377Z" fill="#212121"/>
<path d="M682.958 40.7344H681.782V45H680.06V35.0469H681.782V39.2305H682.732L685.658 35.0469H687.777L684.359 39.8115L688.078 45H686L682.958 40.7344ZM688.652 41.2334C688.652 40.5088 688.796 39.8571 689.083 39.2783C689.37 38.695 689.773 38.2484 690.293 37.9385C690.812 37.624 691.409 37.4668 692.084 37.4668C693.082 37.4668 693.891 37.7881 694.51 38.4307C695.135 39.0732 695.472 39.9255 695.522 40.9873L695.529 41.377C695.529 42.1061 695.388 42.7578 695.105 43.332C694.827 43.9062 694.426 44.3506 693.902 44.665C693.383 44.9795 692.781 45.1367 692.097 45.1367C691.054 45.1367 690.217 44.7904 689.589 44.0977C688.964 43.4004 688.652 42.473 688.652 41.3154V41.2334ZM690.313 41.377C690.313 42.138 690.47 42.735 690.785 43.168C691.099 43.5964 691.537 43.8105 692.097 43.8105C692.658 43.8105 693.093 43.5918 693.403 43.1543C693.717 42.7168 693.875 42.0765 693.875 41.2334C693.875 40.486 693.713 39.8936 693.389 39.4561C693.07 39.0186 692.635 38.7998 692.084 38.7998C691.541 38.7998 691.111 39.0163 690.792 39.4492C690.473 39.8776 690.313 40.5202 690.313 41.377ZM703.479 45H701.818V42.0127H698.94V45H697.279V37.6035H698.94V40.6865H701.818V37.6035H703.479V45ZM711.354 38.9229H708.954V45H707.293V38.9229H704.921V37.6035H711.354V38.9229ZM717.055 45C716.982 44.8587 716.918 44.6286 716.863 44.3096C716.335 44.861 715.687 45.1367 714.922 45.1367C714.179 45.1367 713.573 44.9248 713.103 44.501C712.634 44.0771 712.399 43.5531 712.399 42.9287C712.399 42.1403 712.691 41.5365 713.274 41.1172C713.862 40.6934 714.701 40.4814 715.79 40.4814H716.808V39.9961C716.808 39.6133 716.701 39.3079 716.487 39.0801C716.273 38.8477 715.947 38.7314 715.51 38.7314C715.131 38.7314 714.821 38.8271 714.58 39.0186C714.338 39.2054 714.218 39.4447 714.218 39.7363H712.557C712.557 39.3307 712.691 38.9525 712.96 38.6016C713.229 38.2461 713.593 37.9681 714.054 37.7676C714.518 37.5671 715.036 37.4668 715.605 37.4668C716.471 37.4668 717.162 37.6855 717.677 38.123C718.192 38.556 718.456 39.1667 718.47 39.9551V43.291C718.47 43.9564 718.563 44.4873 718.75 44.8838V45H717.055ZM715.229 43.8037C715.557 43.8037 715.865 43.724 716.152 43.5645C716.444 43.4049 716.663 43.1908 716.808 42.9219V41.5273H715.913C715.298 41.5273 714.835 41.6344 714.525 41.8486C714.215 42.0628 714.06 42.3659 714.06 42.7578C714.06 43.0768 714.165 43.332 714.375 43.5234C714.589 43.7103 714.874 43.8037 715.229 43.8037ZM723.118 42.0742H722.277V45H720.616V37.6035H722.277V40.5566H723.008L725.052 37.6035H727.103L724.43 41.1445L727.329 45H725.169L723.118 42.0742ZM734.342 38.9229H731.943V45H730.282V38.9229H727.909V37.6035H734.342V38.9229ZM737.521 39.9551H739.147C739.754 39.9551 740.282 40.0599 740.733 40.2695C741.185 40.4792 741.526 40.7731 741.759 41.1514C741.996 41.5296 742.114 41.9694 742.114 42.4707C742.114 43.2318 741.845 43.8424 741.308 44.3027C740.77 44.763 740.054 44.9954 739.161 45H735.859V37.6035H737.521V39.9551ZM745.006 45H743.345V37.6035H745.006V45ZM737.521 41.2881V43.6738H739.141C739.546 43.6738 739.865 43.5736 740.098 43.373C740.335 43.168 740.453 42.8786 740.453 42.5049C740.453 42.1312 740.337 41.8372 740.105 41.623C739.877 41.4043 739.567 41.2926 739.175 41.2881H737.521Z" fill="#212121"/>
<path d="M1080.62 45H1078.96V37.6035H1080.62V45ZM1078.85 35.6826C1078.85 35.4274 1078.93 35.2155 1079.09 35.0469C1079.26 34.8783 1079.49 34.7939 1079.79 34.7939C1080.09 34.7939 1080.32 34.8783 1080.49 35.0469C1080.65 35.2155 1080.73 35.4274 1080.73 35.6826C1080.73 35.9333 1080.65 36.1429 1080.49 36.3115C1080.32 36.4756 1080.09 36.5576 1079.79 36.5576C1079.49 36.5576 1079.26 36.4756 1079.09 36.3115C1078.93 36.1429 1078.85 35.9333 1078.85 35.6826ZM1084.25 37.6035L1084.3 38.458C1084.85 37.7972 1085.57 37.4668 1086.46 37.4668C1088 37.4668 1088.78 38.3486 1088.81 40.1123V45H1087.15V40.208C1087.15 39.7386 1087.04 39.3923 1086.84 39.1689C1086.64 38.9411 1086.31 38.8271 1085.85 38.8271C1085.18 38.8271 1084.68 39.1302 1084.35 39.7363V45H1082.69V37.6035H1084.25ZM1091.37 45V38.834H1090.24V37.6035H1091.37V36.9268C1091.37 36.1064 1091.6 35.473 1092.05 35.0264C1092.51 34.5798 1093.15 34.3564 1093.97 34.3564C1094.26 34.3564 1094.57 34.3975 1094.9 34.4795L1094.86 35.7783C1094.67 35.7419 1094.46 35.7236 1094.22 35.7236C1093.43 35.7236 1093.03 36.1315 1093.03 36.9473V37.6035H1094.54V38.834H1093.03V45H1091.37ZM1095.72 41.2334C1095.72 40.5088 1095.86 39.8571 1096.15 39.2783C1096.44 38.695 1096.84 38.2484 1097.36 37.9385C1097.88 37.624 1098.48 37.4668 1099.15 37.4668C1100.15 37.4668 1100.96 37.7881 1101.58 38.4307C1102.2 39.0732 1102.54 39.9255 1102.59 40.9873L1102.59 41.377C1102.59 42.1061 1102.45 42.7578 1102.17 43.332C1101.89 43.9062 1101.49 44.3506 1100.97 44.665C1100.45 44.9795 1099.85 45.1367 1099.16 45.1367C1098.12 45.1367 1097.28 44.7904 1096.65 44.0977C1096.03 43.4004 1095.72 42.473 1095.72 41.3154V41.2334ZM1097.38 41.377C1097.38 42.138 1097.54 42.735 1097.85 43.168C1098.17 43.5964 1098.6 43.8105 1099.16 43.8105C1099.72 43.8105 1100.16 43.5918 1100.47 43.1543C1100.78 42.7168 1100.94 42.0765 1100.94 41.2334C1100.94 40.486 1100.78 39.8936 1100.46 39.4561C1100.14 39.0186 1099.7 38.7998 1099.15 38.7998C1098.61 38.7998 1098.18 39.0163 1097.86 39.4492C1097.54 39.8776 1097.38 40.5202 1097.38 41.377ZM1115.33 41.459C1115.28 42.5983 1115 43.4984 1114.49 44.1592C1113.98 44.8154 1113.3 45.1436 1112.43 45.1436C1111.61 45.1436 1111.06 44.7926 1110.78 44.0908C1110.54 44.4372 1110.27 44.6969 1109.96 44.8701C1109.66 45.0433 1109.34 45.1299 1109 45.1299C1108.33 45.1299 1107.83 44.8564 1107.48 44.3096C1107.14 43.7627 1107.01 43.0312 1107.09 42.1152C1107.17 41.3724 1107.35 40.7025 1107.63 40.1055C1107.92 39.5085 1108.29 39.0482 1108.73 38.7246C1109.18 38.3965 1109.65 38.2324 1110.16 38.2324C1110.54 38.2324 1110.88 38.2803 1111.17 38.376C1111.46 38.4717 1111.81 38.6699 1112.21 38.9707L1111.85 42.8193C1111.76 43.7217 1112.02 44.1729 1112.63 44.1729C1113.09 44.1729 1113.48 43.9245 1113.77 43.4277C1114.07 42.9264 1114.24 42.2793 1114.26 41.4863C1114.34 39.8047 1114.02 38.5173 1113.29 37.624C1112.56 36.7308 1111.47 36.2842 1110.01 36.2842C1109.12 36.2842 1108.33 36.5075 1107.63 36.9541C1106.94 37.4007 1106.4 38.0479 1105.99 38.8955C1105.59 39.7386 1105.36 40.7002 1105.32 41.7803C1105.27 42.8786 1105.4 43.8265 1105.71 44.624C1106.03 45.417 1106.52 46.0208 1107.17 46.4355C1107.82 46.8503 1108.62 47.0576 1109.57 47.0576C1109.95 47.0576 1110.35 47.012 1110.76 46.9209C1111.18 46.8298 1111.54 46.7067 1111.83 46.5518L1112.09 47.4883C1111.81 47.6706 1111.44 47.8164 1110.96 47.9258C1110.49 48.0397 1110.02 48.0967 1109.54 48.0967C1108.38 48.0967 1107.39 47.8506 1106.56 47.3584C1105.73 46.8708 1105.11 46.1621 1104.69 45.2324C1104.26 44.2708 1104.08 43.1201 1104.13 41.7803C1104.18 40.5316 1104.46 39.4105 1104.97 38.417C1105.47 37.4189 1106.16 36.6442 1107.04 36.0928C1107.92 35.5413 1108.92 35.2656 1110.04 35.2656C1111.17 35.2656 1112.15 35.5163 1112.96 36.0176C1113.79 36.5143 1114.4 37.2321 1114.8 38.1709C1115.21 39.1051 1115.38 40.2012 1115.33 41.459ZM1108.43 42.1152C1108.37 42.735 1108.43 43.2067 1108.6 43.5303C1108.77 43.8493 1109.03 44.0088 1109.4 44.0088C1109.65 44.0088 1109.88 43.9017 1110.1 43.6875C1110.32 43.4688 1110.5 43.1702 1110.63 42.792L1110.94 39.4219C1110.71 39.3353 1110.49 39.292 1110.28 39.292C1109.77 39.292 1109.36 39.5312 1109.04 40.0098C1108.72 40.4837 1108.52 41.1855 1108.43 42.1152ZM1116.77 41.2471C1116.77 40.1077 1117.04 39.194 1117.57 38.5059C1118.09 37.8132 1118.8 37.4668 1119.69 37.4668C1120.47 37.4668 1121.11 37.7402 1121.59 38.2871V34.5H1123.25V45H1121.75L1121.67 44.2344C1121.17 44.8359 1120.51 45.1367 1119.68 45.1367C1118.81 45.1367 1118.11 44.7881 1117.57 44.0908C1117.04 43.3936 1116.77 42.4456 1116.77 41.2471ZM1118.43 41.3906C1118.43 42.1426 1118.58 42.7305 1118.86 43.1543C1119.16 43.5736 1119.57 43.7832 1120.1 43.7832C1120.78 43.7832 1121.28 43.4801 1121.59 42.874V39.7158C1121.29 39.1234 1120.79 38.8271 1120.11 38.8271C1119.58 38.8271 1119.16 39.0413 1118.87 39.4697C1118.58 39.8936 1118.43 40.5339 1118.43 41.3906ZM1128.52 45.1367C1127.47 45.1367 1126.62 44.8063 1125.96 44.1455C1125.31 43.4801 1124.98 42.596 1124.98 41.4932V41.2881C1124.98 40.5498 1125.12 39.8913 1125.41 39.3125C1125.69 38.7292 1126.09 38.2757 1126.61 37.9521C1127.12 37.6286 1127.7 37.4668 1128.33 37.4668C1129.34 37.4668 1130.12 37.7881 1130.66 38.4307C1131.21 39.0732 1131.49 39.9824 1131.49 41.1582V41.8281H1126.66C1126.71 42.4388 1126.91 42.9219 1127.26 43.2773C1127.62 43.6328 1128.08 43.8105 1128.62 43.8105C1129.38 43.8105 1130 43.5029 1130.48 42.8877L1131.37 43.7422C1131.08 44.1842 1130.68 44.5283 1130.18 44.7744C1129.69 45.016 1129.14 45.1367 1128.52 45.1367ZM1128.32 38.7998C1127.87 38.7998 1127.5 38.9593 1127.22 39.2783C1126.94 39.5973 1126.76 40.0417 1126.68 40.6113H1129.85V40.4883C1129.81 39.9323 1129.66 39.513 1129.4 39.2305C1129.14 38.9434 1128.78 38.7998 1128.32 38.7998ZM1135.58 42.8945L1137.14 37.6035H1138.86L1136.29 45H1134.85L1132.27 37.6035H1133.99L1135.58 42.8945ZM1144.33 42.9902C1144.33 42.694 1144.2 42.4684 1143.96 42.3135C1143.72 42.1585 1143.31 42.0218 1142.75 41.9033C1142.18 41.7848 1141.71 41.6344 1141.33 41.4521C1140.5 41.0511 1140.09 40.4701 1140.09 39.709C1140.09 39.071 1140.36 38.5378 1140.9 38.1094C1141.43 37.681 1142.12 37.4668 1142.95 37.4668C1143.83 37.4668 1144.54 37.6855 1145.09 38.123C1145.63 38.5605 1145.91 39.1279 1145.91 39.8252H1144.24C1144.24 39.5062 1144.13 39.2419 1143.89 39.0322C1143.65 38.818 1143.34 38.7109 1142.95 38.7109C1142.58 38.7109 1142.28 38.7952 1142.05 38.9639C1141.82 39.1325 1141.71 39.3581 1141.71 39.6406C1141.71 39.8958 1141.82 40.0941 1142.03 40.2354C1142.24 40.3766 1142.68 40.5202 1143.33 40.666C1143.98 40.8073 1144.49 40.9782 1144.86 41.1787C1145.23 41.3747 1145.51 41.6117 1145.69 41.8896C1145.87 42.1676 1145.96 42.5049 1145.96 42.9014C1145.96 43.5667 1145.68 44.1068 1145.13 44.5215C1144.58 44.9316 1143.86 45.1367 1142.97 45.1367C1142.36 45.1367 1141.82 45.0273 1141.35 44.8086C1140.87 44.5898 1140.5 44.2891 1140.24 43.9062C1139.97 43.5234 1139.84 43.111 1139.84 42.6689H1141.46C1141.48 43.0609 1141.63 43.3639 1141.9 43.5781C1142.17 43.7878 1142.54 43.8926 1142.99 43.8926C1143.42 43.8926 1143.76 43.8105 1143.99 43.6465C1144.21 43.4779 1144.33 43.2591 1144.33 42.9902ZM1149.77 35.8057V37.6035H1151.08V38.834H1149.77V42.9629C1149.77 43.2454 1149.83 43.4505 1149.94 43.5781C1150.05 43.7012 1150.25 43.7627 1150.54 43.7627C1150.73 43.7627 1150.93 43.7399 1151.12 43.6943V44.9795C1150.74 45.0843 1150.38 45.1367 1150.03 45.1367C1148.75 45.1367 1148.11 44.4326 1148.11 43.0244V38.834H1146.9V37.6035H1148.11V35.8057H1149.77ZM1157.12 44.2754C1156.63 44.8496 1155.94 45.1367 1155.04 45.1367C1154.24 45.1367 1153.63 44.902 1153.21 44.4326C1152.8 43.9632 1152.6 43.2842 1152.6 42.3955V37.6035H1154.26V42.375C1154.26 43.3138 1154.65 43.7832 1155.43 43.7832C1156.23 43.7832 1156.78 43.4938 1157.06 42.915V37.6035H1158.72V45H1157.16L1157.12 44.2754ZM1160.38 41.2471C1160.38 40.1077 1160.65 39.194 1161.18 38.5059C1161.71 37.8132 1162.41 37.4668 1163.3 37.4668C1164.09 37.4668 1164.72 37.7402 1165.2 38.2871V34.5H1166.86V45H1165.36L1165.28 44.2344C1164.78 44.8359 1164.12 45.1367 1163.29 45.1367C1162.42 45.1367 1161.72 44.7881 1161.18 44.0908C1160.65 43.3936 1160.38 42.4456 1160.38 41.2471ZM1162.04 41.3906C1162.04 42.1426 1162.19 42.7305 1162.48 43.1543C1162.77 43.5736 1163.18 43.7832 1163.71 43.7832C1164.39 43.7832 1164.89 43.4801 1165.2 42.874V39.7158C1164.9 39.1234 1164.41 38.8271 1163.73 38.8271C1163.19 38.8271 1162.77 39.0413 1162.48 39.4697C1162.19 39.8936 1162.04 40.5339 1162.04 41.3906ZM1170.64 45H1168.98V37.6035H1170.64V45ZM1168.88 35.6826C1168.88 35.4274 1168.96 35.2155 1169.12 35.0469C1169.28 34.8783 1169.52 34.7939 1169.82 34.7939C1170.12 34.7939 1170.35 34.8783 1170.51 35.0469C1170.68 35.2155 1170.76 35.4274 1170.76 35.6826C1170.76 35.9333 1170.68 36.1429 1170.51 36.3115C1170.35 36.4756 1170.12 36.5576 1169.82 36.5576C1169.52 36.5576 1169.28 36.4756 1169.12 36.3115C1168.96 36.1429 1168.88 35.9333 1168.88 35.6826ZM1172.43 41.2334C1172.43 40.5088 1172.57 39.8571 1172.86 39.2783C1173.15 38.695 1173.55 38.2484 1174.07 37.9385C1174.59 37.624 1175.19 37.4668 1175.86 37.4668C1176.86 37.4668 1177.67 37.7881 1178.29 38.4307C1178.91 39.0732 1179.25 39.9255 1179.3 40.9873L1179.31 41.377C1179.31 42.1061 1179.16 42.7578 1178.88 43.332C1178.6 43.9062 1178.2 44.3506 1177.68 44.665C1177.16 44.9795 1176.56 45.1367 1175.87 45.1367C1174.83 45.1367 1173.99 44.7904 1173.36 44.0977C1172.74 43.4004 1172.43 42.473 1172.43 41.3154V41.2334ZM1174.09 41.377C1174.09 42.138 1174.25 42.735 1174.56 43.168C1174.88 43.5964 1175.31 43.8105 1175.87 43.8105C1176.43 43.8105 1176.87 43.5918 1177.18 43.1543C1177.49 42.7168 1177.65 42.0765 1177.65 41.2334C1177.65 40.486 1177.49 39.8936 1177.17 39.4561C1176.85 39.0186 1176.41 38.7998 1175.86 38.7998C1175.32 38.7998 1174.89 39.0163 1174.57 39.4492C1174.25 39.8776 1174.09 40.5202 1174.09 41.377ZM1182.03 43.25C1182.34 43.25 1182.57 43.3389 1182.74 43.5166C1182.91 43.6898 1183 43.9085 1183 44.1729C1183 44.4326 1182.91 44.6491 1182.74 44.8223C1182.57 44.9909 1182.34 45.0752 1182.03 45.0752C1181.73 45.0752 1181.49 44.9909 1181.32 44.8223C1181.15 44.6536 1181.06 44.4372 1181.06 44.1729C1181.06 43.9085 1181.15 43.6898 1181.31 43.5166C1181.48 43.3389 1181.72 43.25 1182.03 43.25ZM1188.22 43.8105C1188.63 43.8105 1188.98 43.6898 1189.25 43.4482C1189.52 43.2067 1189.67 42.9082 1189.69 42.5527H1191.25C1191.24 43.013 1191.09 43.4437 1190.82 43.8447C1190.55 44.2412 1190.19 44.5557 1189.73 44.7881C1189.27 45.0205 1188.77 45.1367 1188.24 45.1367C1187.2 45.1367 1186.38 44.8018 1185.78 44.1318C1185.17 43.4619 1184.87 42.5368 1184.87 41.3564V41.1855C1184.87 40.0599 1185.17 39.1598 1185.77 38.4854C1186.37 37.8063 1187.19 37.4668 1188.23 37.4668C1189.11 37.4668 1189.83 37.7243 1190.38 38.2393C1190.93 38.7497 1191.23 39.4219 1191.25 40.2559H1189.69C1189.67 39.832 1189.52 39.4834 1189.25 39.21C1188.98 38.9365 1188.64 38.7998 1188.22 38.7998C1187.68 38.7998 1187.27 38.9958 1186.97 39.3877C1186.68 39.7751 1186.53 40.3652 1186.53 41.1582V41.4248C1186.53 42.2269 1186.67 42.8262 1186.96 43.2227C1187.25 43.6146 1187.67 43.8105 1188.22 43.8105ZM1192.48 41.2334C1192.48 40.5088 1192.62 39.8571 1192.91 39.2783C1193.19 38.695 1193.6 38.2484 1194.12 37.9385C1194.64 37.624 1195.23 37.4668 1195.91 37.4668C1196.91 37.4668 1197.72 37.7881 1198.34 38.4307C1198.96 39.0732 1199.3 39.9255 1199.35 40.9873L1199.35 41.377C1199.35 42.1061 1199.21 42.7578 1198.93 43.332C1198.65 43.9062 1198.25 44.3506 1197.73 44.665C1197.21 44.9795 1196.61 45.1367 1195.92 45.1367C1194.88 45.1367 1194.04 44.7904 1193.41 44.0977C1192.79 43.4004 1192.48 42.473 1192.48 41.3154V41.2334ZM1194.14 41.377C1194.14 42.138 1194.3 42.735 1194.61 43.168C1194.92 43.5964 1195.36 43.8105 1195.92 43.8105C1196.48 43.8105 1196.92 43.5918 1197.23 43.1543C1197.54 42.7168 1197.7 42.0765 1197.7 41.2334C1197.7 40.486 1197.54 39.8936 1197.21 39.4561C1196.9 39.0186 1196.46 38.7998 1195.91 38.7998C1195.37 38.7998 1194.94 39.0163 1194.62 39.4492C1194.3 39.8776 1194.14 40.5202 1194.14 41.377ZM1202.6 37.6035L1202.65 38.376C1203.17 37.7699 1203.88 37.4668 1204.78 37.4668C1205.77 37.4668 1206.45 37.8451 1206.81 38.6016C1207.35 37.8451 1208.11 37.4668 1209.08 37.4668C1209.9 37.4668 1210.5 37.6924 1210.9 38.1436C1211.3 38.5947 1211.51 39.2601 1211.51 40.1396V45H1209.85V40.1875C1209.85 39.7181 1209.75 39.374 1209.55 39.1553C1209.34 38.9365 1209 38.8271 1208.53 38.8271C1208.15 38.8271 1207.84 38.9297 1207.6 39.1348C1207.36 39.3353 1207.19 39.5996 1207.1 39.9277L1207.11 45H1205.44V40.1328C1205.42 39.2624 1204.98 38.8271 1204.11 38.8271C1203.45 38.8271 1202.97 39.0983 1202.7 39.6406V45H1201.04V37.6035H1202.6Z" fill="#757575"/>
<path d="M1080.62 45H1078.96V37.6035H1080.62V45ZM1078.85 35.6826C1078.85 35.4274 1078.93 35.2155 1079.09 35.0469C1079.26 34.8783 1079.49 34.7939 1079.79 34.7939C1080.09 34.7939 1080.32 34.8783 1080.49 35.0469C1080.65 35.2155 1080.73 35.4274 1080.73 35.6826C1080.73 35.9333 1080.65 36.1429 1080.49 36.3115C1080.32 36.4756 1080.09 36.5576 1079.79 36.5576C1079.49 36.5576 1079.26 36.4756 1079.09 36.3115C1078.93 36.1429 1078.85 35.9333 1078.85 35.6826ZM1084.25 37.6035L1084.3 38.458C1084.85 37.7972 1085.57 37.4668 1086.46 37.4668C1088 37.4668 1088.78 38.3486 1088.81 40.1123V45H1087.15V40.208C1087.15 39.7386 1087.04 39.3923 1086.84 39.1689C1086.64 38.9411 1086.31 38.8271 1085.85 38.8271C1085.18 38.8271 1084.68 39.1302 1084.35 39.7363V45H1082.69V37.6035H1084.25ZM1091.37 45V38.834H1090.24V37.6035H1091.37V36.9268C1091.37 36.1064 1091.6 35.473 1092.05 35.0264C1092.51 34.5798 1093.15 34.3564 1093.97 34.3564C1094.26 34.3564 1094.57 34.3975 1094.9 34.4795L1094.86 35.7783C1094.67 35.7419 1094.46 35.7236 1094.22 35.7236C1093.43 35.7236 1093.03 36.1315 1093.03 36.9473V37.6035H1094.54V38.834H1093.03V45H1091.37ZM1095.72 41.2334C1095.72 40.5088 1095.86 39.8571 1096.15 39.2783C1096.44 38.695 1096.84 38.2484 1097.36 37.9385C1097.88 37.624 1098.48 37.4668 1099.15 37.4668C1100.15 37.4668 1100.96 37.7881 1101.58 38.4307C1102.2 39.0732 1102.54 39.9255 1102.59 40.9873L1102.59 41.377C1102.59 42.1061 1102.45 42.7578 1102.17 43.332C1101.89 43.9062 1101.49 44.3506 1100.97 44.665C1100.45 44.9795 1099.85 45.1367 1099.16 45.1367C1098.12 45.1367 1097.28 44.7904 1096.65 44.0977C1096.03 43.4004 1095.72 42.473 1095.72 41.3154V41.2334ZM1097.38 41.377C1097.38 42.138 1097.54 42.735 1097.85 43.168C1098.17 43.5964 1098.6 43.8105 1099.16 43.8105C1099.72 43.8105 1100.16 43.5918 1100.47 43.1543C1100.78 42.7168 1100.94 42.0765 1100.94 41.2334C1100.94 40.486 1100.78 39.8936 1100.46 39.4561C1100.14 39.0186 1099.7 38.7998 1099.15 38.7998C1098.61 38.7998 1098.18 39.0163 1097.86 39.4492C1097.54 39.8776 1097.38 40.5202 1097.38 41.377ZM1115.33 41.459C1115.28 42.5983 1115 43.4984 1114.49 44.1592C1113.98 44.8154 1113.3 45.1436 1112.43 45.1436C1111.61 45.1436 1111.06 44.7926 1110.78 44.0908C1110.54 44.4372 1110.27 44.6969 1109.96 44.8701C1109.66 45.0433 1109.34 45.1299 1109 45.1299C1108.33 45.1299 1107.83 44.8564 1107.48 44.3096C1107.14 43.7627 1107.01 43.0312 1107.09 42.1152C1107.17 41.3724 1107.35 40.7025 1107.63 40.1055C1107.92 39.5085 1108.29 39.0482 1108.73 38.7246C1109.18 38.3965 1109.65 38.2324 1110.16 38.2324C1110.54 38.2324 1110.88 38.2803 1111.17 38.376C1111.46 38.4717 1111.81 38.6699 1112.21 38.9707L1111.85 42.8193C1111.76 43.7217 1112.02 44.1729 1112.63 44.1729C1113.09 44.1729 1113.48 43.9245 1113.77 43.4277C1114.07 42.9264 1114.24 42.2793 1114.26 41.4863C1114.34 39.8047 1114.02 38.5173 1113.29 37.624C1112.56 36.7308 1111.47 36.2842 1110.01 36.2842C1109.12 36.2842 1108.33 36.5075 1107.63 36.9541C1106.94 37.4007 1106.4 38.0479 1105.99 38.8955C1105.59 39.7386 1105.36 40.7002 1105.32 41.7803C1105.27 42.8786 1105.4 43.8265 1105.71 44.624C1106.03 45.417 1106.52 46.0208 1107.17 46.4355C1107.82 46.8503 1108.62 47.0576 1109.57 47.0576C1109.95 47.0576 1110.35 47.012 1110.76 46.9209C1111.18 46.8298 1111.54 46.7067 1111.83 46.5518L1112.09 47.4883C1111.81 47.6706 1111.44 47.8164 1110.96 47.9258C1110.49 48.0397 1110.02 48.0967 1109.54 48.0967C1108.38 48.0967 1107.39 47.8506 1106.56 47.3584C1105.73 46.8708 1105.11 46.1621 1104.69 45.2324C1104.26 44.2708 1104.08 43.1201 1104.13 41.7803C1104.18 40.5316 1104.46 39.4105 1104.97 38.417C1105.47 37.4189 1106.16 36.6442 1107.04 36.0928C1107.92 35.5413 1108.92 35.2656 1110.04 35.2656C1111.17 35.2656 1112.15 35.5163 1112.96 36.0176C1113.79 36.5143 1114.4 37.2321 1114.8 38.1709C1115.21 39.1051 1115.38 40.2012 1115.33 41.459ZM1108.43 42.1152C1108.37 42.735 1108.43 43.2067 1108.6 43.5303C1108.77 43.8493 1109.03 44.0088 1109.4 44.0088C1109.65 44.0088 1109.88 43.9017 1110.1 43.6875C1110.32 43.4688 1110.5 43.1702 1110.63 42.792L1110.94 39.4219C1110.71 39.3353 1110.49 39.292 1110.28 39.292C1109.77 39.292 1109.36 39.5312 1109.04 40.0098C1108.72 40.4837 1108.52 41.1855 1108.43 42.1152ZM1116.77 41.2471C1116.77 40.1077 1117.04 39.194 1117.57 38.5059C1118.09 37.8132 1118.8 37.4668 1119.69 37.4668C1120.47 37.4668 1121.11 37.7402 1121.59 38.2871V34.5H1123.25V45H1121.75L1121.67 44.2344C1121.17 44.8359 1120.51 45.1367 1119.68 45.1367C1118.81 45.1367 1118.11 44.7881 1117.57 44.0908C1117.04 43.3936 1116.77 42.4456 1116.77 41.2471ZM1118.43 41.3906C1118.43 42.1426 1118.58 42.7305 1118.86 43.1543C1119.16 43.5736 1119.57 43.7832 1120.1 43.7832C1120.78 43.7832 1121.28 43.4801 1121.59 42.874V39.7158C1121.29 39.1234 1120.79 38.8271 1120.11 38.8271C1119.58 38.8271 1119.16 39.0413 1118.87 39.4697C1118.58 39.8936 1118.43 40.5339 1118.43 41.3906ZM1128.52 45.1367C1127.47 45.1367 1126.62 44.8063 1125.96 44.1455C1125.31 43.4801 1124.98 42.596 1124.98 41.4932V41.2881C1124.98 40.5498 1125.12 39.8913 1125.41 39.3125C1125.69 38.7292 1126.09 38.2757 1126.61 37.9521C1127.12 37.6286 1127.7 37.4668 1128.33 37.4668C1129.34 37.4668 1130.12 37.7881 1130.66 38.4307C1131.21 39.0732 1131.49 39.9824 1131.49 41.1582V41.8281H1126.66C1126.71 42.4388 1126.91 42.9219 1127.26 43.2773C1127.62 43.6328 1128.08 43.8105 1128.62 43.8105C1129.38 43.8105 1130 43.5029 1130.48 42.8877L1131.37 43.7422C1131.08 44.1842 1130.68 44.5283 1130.18 44.7744C1129.69 45.016 1129.14 45.1367 1128.52 45.1367ZM1128.32 38.7998C1127.87 38.7998 1127.5 38.9593 1127.22 39.2783C1126.94 39.5973 1126.76 40.0417 1126.68 40.6113H1129.85V40.4883C1129.81 39.9323 1129.66 39.513 1129.4 39.2305C1129.14 38.9434 1128.78 38.7998 1128.32 38.7998ZM1135.58 42.8945L1137.14 37.6035H1138.86L1136.29 45H1134.85L1132.27 37.6035H1133.99L1135.58 42.8945ZM1144.33 42.9902C1144.33 42.694 1144.2 42.4684 1143.96 42.3135C1143.72 42.1585 1143.31 42.0218 1142.75 41.9033C1142.18 41.7848 1141.71 41.6344 1141.33 41.4521C1140.5 41.0511 1140.09 40.4701 1140.09 39.709C1140.09 39.071 1140.36 38.5378 1140.9 38.1094C1141.43 37.681 1142.12 37.4668 1142.95 37.4668C1143.83 37.4668 1144.54 37.6855 1145.09 38.123C1145.63 38.5605 1145.91 39.1279 1145.91 39.8252H1144.24C1144.24 39.5062 1144.13 39.2419 1143.89 39.0322C1143.65 38.818 1143.34 38.7109 1142.95 38.7109C1142.58 38.7109 1142.28 38.7952 1142.05 38.9639C1141.82 39.1325 1141.71 39.3581 1141.71 39.6406C1141.71 39.8958 1141.82 40.0941 1142.03 40.2354C1142.24 40.3766 1142.68 40.5202 1143.33 40.666C1143.98 40.8073 1144.49 40.9782 1144.86 41.1787C1145.23 41.3747 1145.51 41.6117 1145.69 41.8896C1145.87 42.1676 1145.96 42.5049 1145.96 42.9014C1145.96 43.5667 1145.68 44.1068 1145.13 44.5215C1144.58 44.9316 1143.86 45.1367 1142.97 45.1367C1142.36 45.1367 1141.82 45.0273 1141.35 44.8086C1140.87 44.5898 1140.5 44.2891 1140.24 43.9062C1139.97 43.5234 1139.84 43.111 1139.84 42.6689H1141.46C1141.48 43.0609 1141.63 43.3639 1141.9 43.5781C1142.17 43.7878 1142.54 43.8926 1142.99 43.8926C1143.42 43.8926 1143.76 43.8105 1143.99 43.6465C1144.21 43.4779 1144.33 43.2591 1144.33 42.9902ZM1149.77 35.8057V37.6035H1151.08V38.834H1149.77V42.9629C1149.77 43.2454 1149.83 43.4505 1149.94 43.5781C1150.05 43.7012 1150.25 43.7627 1150.54 43.7627C1150.73 43.7627 1150.93 43.7399 1151.12 43.6943V44.9795C1150.74 45.0843 1150.38 45.1367 1150.03 45.1367C1148.75 45.1367 1148.11 44.4326 1148.11 43.0244V38.834H1146.9V37.6035H1148.11V35.8057H1149.77ZM1157.12 44.2754C1156.63 44.8496 1155.94 45.1367 1155.04 45.1367C1154.24 45.1367 1153.63 44.902 1153.21 44.4326C1152.8 43.9632 1152.6 43.2842 1152.6 42.3955V37.6035H1154.26V42.375C1154.26 43.3138 1154.65 43.7832 1155.43 43.7832C1156.23 43.7832 1156.78 43.4938 1157.06 42.915V37.6035H1158.72V45H1157.16L1157.12 44.2754ZM1160.38 41.2471C1160.38 40.1077 1160.65 39.194 1161.18 38.5059C1161.71 37.8132 1162.41 37.4668 1163.3 37.4668C1164.09 37.4668 1164.72 37.7402 1165.2 38.2871V34.5H1166.86V45H1165.36L1165.28 44.2344C1164.78 44.8359 1164.12 45.1367 1163.29 45.1367C1162.42 45.1367 1161.72 44.7881 1161.18 44.0908C1160.65 43.3936 1160.38 42.4456 1160.38 41.2471ZM1162.04 41.3906C1162.04 42.1426 1162.19 42.7305 1162.48 43.1543C1162.77 43.5736 1163.18 43.7832 1163.71 43.7832C1164.39 43.7832 1164.89 43.4801 1165.2 42.874V39.7158C1164.9 39.1234 1164.41 38.8271 1163.73 38.8271C1163.19 38.8271 1162.77 39.0413 1162.48 39.4697C1162.19 39.8936 1162.04 40.5339 1162.04 41.3906ZM1170.64 45H1168.98V37.6035H1170.64V45ZM1168.88 35.6826C1168.88 35.4274 1168.96 35.2155 1169.12 35.0469C1169.28 34.8783 1169.52 34.7939 1169.82 34.7939C1170.12 34.7939 1170.35 34.8783 1170.51 35.0469C1170.68 35.2155 1170.76 35.4274 1170.76 35.6826C1170.76 35.9333 1170.68 36.1429 1170.51 36.3115C1170.35 36.4756 1170.12 36.5576 1169.82 36.5576C1169.52 36.5576 1169.28 36.4756 1169.12 36.3115C1168.96 36.1429 1168.88 35.9333 1168.88 35.6826ZM1172.43 41.2334C1172.43 40.5088 1172.57 39.8571 1172.86 39.2783C1173.15 38.695 1173.55 38.2484 1174.07 37.9385C1174.59 37.624 1175.19 37.4668 1175.86 37.4668C1176.86 37.4668 1177.67 37.7881 1178.29 38.4307C1178.91 39.0732 1179.25 39.9255 1179.3 40.9873L1179.31 41.377C1179.31 42.1061 1179.16 42.7578 1178.88 43.332C1178.6 43.9062 1178.2 44.3506 1177.68 44.665C1177.16 44.9795 1176.56 45.1367 1175.87 45.1367C1174.83 45.1367 1173.99 44.7904 1173.36 44.0977C1172.74 43.4004 1172.43 42.473 1172.43 41.3154V41.2334ZM1174.09 41.377C1174.09 42.138 1174.25 42.735 1174.56 43.168C1174.88 43.5964 1175.31 43.8105 1175.87 43.8105C1176.43 43.8105 1176.87 43.5918 1177.18 43.1543C1177.49 42.7168 1177.65 42.0765 1177.65 41.2334C1177.65 40.486 1177.49 39.8936 1177.17 39.4561C1176.85 39.0186 1176.41 38.7998 1175.86 38.7998C1175.32 38.7998 1174.89 39.0163 1174.57 39.4492C1174.25 39.8776 1174.09 40.5202 1174.09 41.377ZM1182.03 43.25C1182.34 43.25 1182.57 43.3389 1182.74 43.5166C1182.91 43.6898 1183 43.9085 1183 44.1729C1183 44.4326 1182.91 44.6491 1182.74 44.8223C1182.57 44.9909 1182.34 45.0752 1182.03 45.0752C1181.73 45.0752 1181.49 44.9909 1181.32 44.8223C1181.15 44.6536 1181.06 44.4372 1181.06 44.1729C1181.06 43.9085 1181.15 43.6898 1181.31 43.5166C1181.48 43.3389 1181.72 43.25 1182.03 43.25ZM1188.22 43.8105C1188.63 43.8105 1188.98 43.6898 1189.25 43.4482C1189.52 43.2067 1189.67 42.9082 1189.69 42.5527H1191.25C1191.24 43.013 1191.09 43.4437 1190.82 43.8447C1190.55 44.2412 1190.19 44.5557 1189.73 44.7881C1189.27 45.0205 1188.77 45.1367 1188.24 45.1367C1187.2 45.1367 1186.38 44.8018 1185.78 44.1318C1185.17 43.4619 1184.87 42.5368 1184.87 41.3564V41.1855C1184.87 40.0599 1185.17 39.1598 1185.77 38.4854C1186.37 37.8063 1187.19 37.4668 1188.23 37.4668C1189.11 37.4668 1189.83 37.7243 1190.38 38.2393C1190.93 38.7497 1191.23 39.4219 1191.25 40.2559H1189.69C1189.67 39.832 1189.52 39.4834 1189.25 39.21C1188.98 38.9365 1188.64 38.7998 1188.22 38.7998C1187.68 38.7998 1187.27 38.9958 1186.97 39.3877C1186.68 39.7751 1186.53 40.3652 1186.53 41.1582V41.4248C1186.53 42.2269 1186.67 42.8262 1186.96 43.2227C1187.25 43.6146 1187.67 43.8105 1188.22 43.8105ZM1192.48 41.2334C1192.48 40.5088 1192.62 39.8571 1192.91 39.2783C1193.19 38.695 1193.6 38.2484 1194.12 37.9385C1194.64 37.624 1195.23 37.4668 1195.91 37.4668C1196.91 37.4668 1197.72 37.7881 1198.34 38.4307C1198.96 39.0732 1199.3 39.9255 1199.35 40.9873L1199.35 41.377C1199.35 42.1061 1199.21 42.7578 1198.93 43.332C1198.65 43.9062 1198.25 44.3506 1197.73 44.665C1197.21 44.9795 1196.61 45.1367 1195.92 45.1367C1194.88 45.1367 1194.04 44.7904 1193.41 44.0977C1192.79 43.4004 1192.48 42.473 1192.48 41.3154V41.2334ZM1194.14 41.377C1194.14 42.138 1194.3 42.735 1194.61 43.168C1194.92 43.5964 1195.36 43.8105 1195.92 43.8105C1196.48 43.8105 1196.92 43.5918 1197.23 43.1543C1197.54 42.7168 1197.7 42.0765 1197.7 41.2334C1197.7 40.486 1197.54 39.8936 1197.21 39.4561C1196.9 39.0186 1196.46 38.7998 1195.91 38.7998C1195.37 38.7998 1194.94 39.0163 1194.62 39.4492C1194.3 39.8776 1194.14 40.5202 1194.14 41.377ZM1202.6 37.6035L1202.65 38.376C1203.17 37.7699 1203.88 37.4668 1204.78 37.4668C1205.77 37.4668 1206.45 37.8451 1206.81 38.6016C1207.35 37.8451 1208.11 37.4668 1209.08 37.4668C1209.9 37.4668 1210.5 37.6924 1210.9 38.1436C1211.3 38.5947 1211.51 39.2601 1211.51 40.1396V45H1209.85V40.1875C1209.85 39.7181 1209.75 39.374 1209.55 39.1553C1209.34 38.9365 1209 38.8271 1208.53 38.8271C1208.15 38.8271 1207.84 38.9297 1207.6 39.1348C1207.36 39.3353 1207.19 39.5996 1207.1 39.9277L1207.11 45H1205.44V40.1328C1205.42 39.2624 1204.98 38.8271 1204.11 38.8271C1203.45 38.8271 1202.97 39.0983 1202.7 39.6406V45H1201.04V37.6035H1202.6Z" fill="#2196F3"/>
<path d="M1267.69 39.5244H1270.29V41.042H1267.69V44.002H1266.08V41.042H1263.46V39.5244H1266.08V36.7559H1267.69V39.5244ZM1273.75 39.2646H1274.76C1275.27 39.2601 1275.68 39.1279 1275.97 38.8682C1276.28 38.6084 1276.43 38.2324 1276.43 37.7402C1276.43 37.2663 1276.3 36.8994 1276.05 36.6396C1275.8 36.3753 1275.43 36.2432 1274.91 36.2432C1274.47 36.2432 1274.1 36.373 1273.81 36.6328C1273.53 36.888 1273.38 37.223 1273.38 37.6377H1271.72C1271.72 37.1273 1271.86 36.6624 1272.13 36.2432C1272.4 35.8239 1272.78 35.498 1273.26 35.2656C1273.75 35.0286 1274.29 34.9102 1274.89 34.9102C1275.89 34.9102 1276.67 35.1608 1277.23 35.6621C1277.8 36.1589 1278.09 36.8516 1278.09 37.7402C1278.09 38.1868 1277.94 38.6084 1277.66 39.0049C1277.37 39.3968 1277.01 39.693 1276.56 39.8936C1277.1 40.0804 1277.52 40.3743 1277.8 40.7754C1278.09 41.1764 1278.23 41.6549 1278.23 42.2109C1278.23 43.1042 1277.92 43.8151 1277.31 44.3438C1276.7 44.8724 1275.89 45.1367 1274.89 45.1367C1273.94 45.1367 1273.15 44.8815 1272.54 44.3711C1271.93 43.8607 1271.63 43.1816 1271.63 42.334H1273.29C1273.29 42.7715 1273.43 43.127 1273.73 43.4004C1274.02 43.6738 1274.42 43.8105 1274.91 43.8105C1275.43 43.8105 1275.84 43.6738 1276.13 43.4004C1276.43 43.127 1276.58 42.7305 1276.58 42.2109C1276.58 41.6868 1276.42 41.2835 1276.11 41.001C1275.8 40.7184 1275.34 40.5771 1274.73 40.5771H1273.75V39.2646ZM1286.34 37.6719C1286.34 38.1595 1286.21 38.5947 1285.96 38.9775C1285.71 39.3558 1285.37 39.6543 1284.94 39.873C1285.46 40.1146 1285.85 40.445 1286.13 40.8643C1286.41 41.2835 1286.56 41.7575 1286.56 42.2861C1286.56 43.1611 1286.26 43.8561 1285.67 44.3711C1285.07 44.8815 1284.29 45.1367 1283.3 45.1367C1282.31 45.1367 1281.52 44.8792 1280.92 44.3643C1280.33 43.8493 1280.03 43.1566 1280.03 42.2861C1280.03 41.7529 1280.18 41.2744 1280.46 40.8506C1280.74 40.4268 1281.14 40.1009 1281.65 39.873C1281.22 39.6543 1280.88 39.3558 1280.63 38.9775C1280.38 38.5947 1280.26 38.1595 1280.26 37.6719C1280.26 36.8242 1280.53 36.152 1281.08 35.6553C1281.63 35.1585 1282.37 34.9102 1283.3 34.9102C1284.23 34.9102 1284.97 35.1585 1285.52 35.6553C1286.06 36.152 1286.34 36.8242 1286.34 37.6719ZM1284.89 42.2041C1284.89 41.7119 1284.75 41.3154 1284.45 41.0146C1284.16 40.7093 1283.77 40.5566 1283.29 40.5566C1282.81 40.5566 1282.42 40.707 1282.13 41.0078C1281.84 41.3086 1281.7 41.7074 1281.7 42.2041C1281.7 42.6917 1281.84 43.0814 1282.12 43.373C1282.41 43.6647 1282.8 43.8105 1283.3 43.8105C1283.8 43.8105 1284.19 43.6693 1284.47 43.3867C1284.75 43.1042 1284.89 42.71 1284.89 42.2041ZM1284.68 37.7334C1284.68 37.3005 1284.56 36.945 1284.31 36.667C1284.06 36.3844 1283.72 36.2432 1283.3 36.2432C1282.87 36.2432 1282.54 36.3776 1282.29 36.6465C1282.04 36.9108 1281.92 37.2731 1281.92 37.7334C1281.92 38.1891 1282.04 38.5514 1282.29 38.8203C1282.54 39.0892 1282.88 39.2236 1283.3 39.2236C1283.73 39.2236 1284.06 39.0892 1284.31 38.8203C1284.56 38.5514 1284.68 38.1891 1284.68 37.7334ZM1298.56 40.8096C1298.56 42.2406 1298.29 43.3206 1297.75 44.0498C1297.22 44.7744 1296.41 45.1367 1295.31 45.1367C1294.24 45.1367 1293.43 44.7835 1292.88 44.0771C1292.34 43.3662 1292.06 42.3158 1292.04 40.9258V39.2031C1292.04 37.7721 1292.31 36.6989 1292.84 35.9834C1293.38 35.2679 1294.2 34.9102 1295.3 34.9102C1296.39 34.9102 1297.2 35.2588 1297.73 35.9561C1298.27 36.6533 1298.55 37.6969 1298.56 39.0869V40.8096ZM1296.9 38.9502C1296.9 38.016 1296.77 37.3324 1296.52 36.8994C1296.26 36.4619 1295.85 36.2432 1295.3 36.2432C1294.76 36.2432 1294.36 36.4505 1294.1 36.8652C1293.85 37.2754 1293.71 37.918 1293.7 38.793V41.0488C1293.7 41.9785 1293.83 42.6712 1294.09 43.127C1294.35 43.5827 1294.76 43.8105 1295.31 43.8105C1295.85 43.8105 1296.24 43.6009 1296.5 43.1816C1296.75 42.7578 1296.88 42.097 1296.9 41.1992V38.9502ZM1305.02 40.8369C1304.46 41.4248 1303.81 41.7188 1303.07 41.7188C1302.2 41.7188 1301.5 41.4134 1300.98 40.8027C1300.46 40.1875 1300.2 39.3809 1300.2 38.3828C1300.2 37.7266 1300.33 37.1318 1300.6 36.5986C1300.86 36.0654 1301.24 35.6507 1301.72 35.3545C1302.21 35.0583 1302.78 34.9102 1303.42 34.9102C1304.42 34.9102 1305.22 35.2839 1305.81 36.0312C1306.39 36.7786 1306.69 37.779 1306.69 39.0322V39.4971C1306.69 41.2926 1306.28 42.6621 1305.47 43.6055C1304.66 44.5488 1303.45 45.0273 1301.84 45.041H1301.64V43.667H1301.88C1302.86 43.6533 1303.61 43.4186 1304.14 42.9629C1304.66 42.5026 1304.96 41.7939 1305.02 40.8369ZM1303.42 40.4199C1303.75 40.4199 1304.06 40.3242 1304.36 40.1328C1304.65 39.9414 1304.87 39.6771 1305.03 39.3398V38.6904C1305.03 37.9567 1304.88 37.3665 1304.58 36.9199C1304.28 36.4733 1303.89 36.25 1303.41 36.25C1302.93 36.25 1302.55 36.4482 1302.26 36.8447C1301.98 37.2367 1301.84 37.7334 1301.84 38.335C1301.84 38.9593 1301.98 39.4629 1302.27 39.8457C1302.56 40.2285 1302.94 40.4199 1303.42 40.4199ZM1313.71 34.999V36.373H1313.51C1312.58 36.3867 1311.84 36.6419 1311.28 37.1387C1310.72 37.6354 1310.39 38.3395 1310.29 39.251C1310.82 38.6904 1311.5 38.4102 1312.33 38.4102C1313.21 38.4102 1313.91 38.7201 1314.41 39.3398C1314.92 39.9596 1315.18 40.7594 1315.18 41.7393C1315.18 42.751 1314.88 43.5713 1314.28 44.2002C1313.69 44.8245 1312.91 45.1367 1311.94 45.1367C1310.95 45.1367 1310.14 44.7699 1309.52 44.0361C1308.91 43.3024 1308.6 42.3408 1308.6 41.1514V40.584C1308.6 38.8385 1309.02 37.4714 1309.87 36.4824C1310.72 35.4935 1311.95 34.999 1313.54 34.999H1313.71ZM1311.93 39.75C1311.57 39.75 1311.23 39.8525 1310.93 40.0576C1310.62 40.2627 1310.4 40.5361 1310.26 40.8779V41.3838C1310.26 42.1221 1310.42 42.71 1310.73 43.1475C1311.04 43.5804 1311.44 43.7969 1311.93 43.7969C1312.42 43.7969 1312.81 43.6123 1313.1 43.2432C1313.39 42.874 1313.53 42.3887 1313.53 41.7871C1313.53 41.1855 1313.38 40.6956 1313.09 40.3174C1312.8 39.9391 1312.41 39.75 1311.93 39.75ZM1325.05 45H1323.39V37.0088L1320.95 37.8428V36.4414L1324.84 35.0127H1325.05V45ZM1333.28 45H1331.63V37.0088L1329.19 37.8428V36.4414L1333.07 35.0127H1333.28V45ZM1341.52 45H1339.87V37.0088L1337.43 37.8428V36.4414L1341.31 35.0127H1341.52V45ZM1353.53 45H1351.87V37.0088L1349.43 37.8428V36.4414L1353.31 35.0127H1353.53V45ZM1361.76 45H1360.11V37.0088L1357.67 37.8428V36.4414L1361.55 35.0127H1361.76V45ZM1373.77 45H1372.11V37.0088L1369.67 37.8428V36.4414L1373.55 35.0127H1373.77V45ZM1382 45H1380.35V37.0088L1377.91 37.8428V36.4414L1381.79 35.0127H1382V45Z" fill="#757575"/>
</svg>
